<?xml version="1.0" encoding="UTF-8" standalone="no"?><svg xmlns="http://www.w3.org/2000/svg" version="1" width="639" height="84" viewBox="-0.514 -0.874 639 84"><g fill="#46b93a"><path d="M2.732 82.156A2.734 2.734 0 0 1 0 79.422v-76.5A2.732 2.732 0 0 1 2.732.188h76.502a2.732 2.732 0 0 1 2.732 2.734v10.926a2.728 2.728 0 0 1-2.732 2.73H24.59a2.735 2.735 0 0 0-2.732 2.734v10.93a2.732 2.732 0 0 0 2.732 2.73h49.18a2.73 2.73 0 0 1 2.732 2.73v10.93a2.732 2.732 0 0 1-2.732 2.734H24.59a2.733 2.733 0 0 0-2.732 2.734v27.32a2.734 2.734 0 0 1-2.732 2.734c-.001.002-14.884.002-16.394.002z"/><path d="M558.254 0a2.73 2.73 0 0 0-2.73 2.73v76.504a2.73 2.73 0 0 0 2.73 2.73h76.504a2.73 2.73 0 0 0 2.73-2.73v-10.93a2.734 2.734 0 0 0-2.73-2.734h-54.645a2.731 2.731 0 0 1-2.734-2.73c0-1.512-.066-60.395-.066-60.395S577.5.008 574.645 0h-16.391z"/><path d="M87.432 2.922A2.732 2.732 0 0 1 90.164.188h81.965a2.732 2.732 0 0 1 2.732 2.734v10.926a2.728 2.728 0 0 1-2.732 2.73h-60.107a2.736 2.736 0 0 0-2.734 2.734v10.93a2.732 2.732 0 0 0 2.734 2.73h54.643a2.73 2.73 0 0 1 2.732 2.73v10.93a2.732 2.732 0 0 1-2.732 2.734h-54.643a2.733 2.733 0 0 0-2.734 2.734v10.926a2.73 2.73 0 0 0 2.734 2.73h60.107a2.734 2.734 0 0 1 2.732 2.734v10.93a2.734 2.734 0 0 1-2.732 2.734H90.164a2.734 2.734 0 0 1-2.732-2.734V2.922z"/><path d="M180.326 32.973c0 9.055 7.34 16.395 16.393 16.395h43.715a5.463 5.463 0 0 1 5.465 5.465v5.465a5.462 5.462 0 0 1-5.465 5.461h-35.518a2.728 2.728 0 0 1-2.732-2.727 2.732 2.732 0 0 0-2.732-2.734h-16.393a2.73 2.73 0 0 0-2.732 2.73v2.73c0 9.055 7.34 16.398 16.393 16.398h54.645c9.055 0 16.395-7.344 16.395-16.398V49.367c0-9.055-7.34-16.395-16.395-16.395H207.65a5.464 5.464 0 0 1-5.465-5.465v-5.461a5.467 5.467 0 0 1 5.465-5.469h35.52a2.734 2.734 0 0 1 2.73 2.734 2.735 2.735 0 0 0 2.734 2.734h16.391a2.737 2.737 0 0 0 2.734-2.734v-2.734c0-9.051-7.34-16.391-16.395-16.391h-54.645c-9.053 0-16.393 7.34-16.393 16.391v16.396z"/><path d="M273.219 2.922a2.735 2.735 0 0 1 2.734-2.734h81.969a2.731 2.731 0 0 1 2.73 2.734v10.926a2.728 2.728 0 0 1-2.73 2.73h-27.324a2.737 2.737 0 0 0-2.734 2.734v60.109a2.731 2.731 0 0 1-2.73 2.734h-16.391a2.735 2.735 0 0 1-2.734-2.734V19.313a2.735 2.735 0 0 0-2.734-2.734h-27.32a2.731 2.731 0 0 1-2.734-2.73V2.922h-.002z"/><path d="M382.512 82.156c-9.055 0-16.398-7.344-16.398-16.398v-49.18c0-9.051 7.344-16.391 16.398-16.391h54.645c9.051 0 16.391 7.34 16.391 16.391v49.18c0 9.055-7.34 16.398-16.391 16.398h-54.645zm10.926-16.398h32.785a5.465 5.465 0 0 0 5.469-5.461v-38.25a5.47 5.47 0 0 0-5.469-5.469h-32.785a5.469 5.469 0 0 0-5.465 5.469v38.25a5.464 5.464 0 0 0 5.465 5.461z"/><path d="M477.457 82.383c-9.059 0-16.395-7.336-16.395-16.391v-49.18c0-9.055 7.336-16.395 16.395-16.395h54.641c9.055 0 16.395 7.34 16.395 16.395v49.18c0 9.055-7.34 16.391-16.395 16.391h-54.641zm10.926-16.391h32.785a5.464 5.464 0 0 0 5.465-5.469v-38.25a5.462 5.462 0 0 0-5.465-5.461h-32.785a5.462 5.462 0 0 0-5.465 5.461v38.25a5.464 5.464 0 0 0 5.465 5.469z"/></g></svg>