<?xml version="1.0" encoding="utf-8"?>
<!-- Generator: Adobe Illustrator 16.0.0, SVG Export Plug-In . SVG Version: 6.00 Build 0)  -->
<!DOCTYPE svg PUBLIC "-//W3C//DTD SVG 1.1//EN" "http://www.w3.org/Graphics/SVG/1.1/DTD/svg11.dtd">
<svg version="1.1" id="Capa_1" xmlns="http://www.w3.org/2000/svg" xmlns:xlink="http://www.w3.org/1999/xlink" x="0px" y="0px"
	 width="488px" height="207.997px" viewBox="0 0 488 207.997" enable-background="new 0 0 488 207.997" xml:space="preserve">
<g>
	<path fill="#00638B" d="M348.795,103.614c6.282-14.232,10.497-16.729,12.577-14.457c3.709,4.053-2.09,17.07-7.16,22.362
		c-1.987,2.079-6.204,3.685-9.487,1.323L348.795,103.614L348.795,103.614z M222.144,98.857c3.741-7.631,2.954-15.947-5.689-16.253
		c-5.942-0.21-11.177,7.397-15.887,11.19l3.318-8.67h-21.368c-9.102,15.105-19.412,30.512-32.243,41.516
		c-0.486,0.417-0.797-0.099-0.56-0.773c4.92-13.921,11.187-27.009,15.925-40.743h-21.804c-14.978,21.289-31.093,36.625-46.83,53.789
		h4.93c11.375-9.151,22.374-21.975,32.419-32.959c-1.588,4.866-4.448,10.158-6.458,15.493c-3.307,8.773-3.918,21.939,6.026,21.939
		c12.328,0,28.495-21.813,36.838-31.253l-10.765,27.555h22.751c3.059-7.114,6.718-18.473,10.355-26.868
		c2.488-5.741,4.903-10.65,7.235-10.756c2.302-0.103,1.661,5.166,5.308,6.635C212.043,111.274,218.49,106.312,222.144,98.857
		L222.144,98.857z M189.796,139.688h5.5l22.185-23.355l-2.454,6.987c-2.348,7.556-2.691,20.066,7.283,20.066
		c10.074,0,24.593-19.513,30.905-27.862l-2.99,8.944c-2.067,6.932-2.604,18.918,6.748,18.918c11.061,0,22.392-16.761,30.709-24.771
		c-3.326,7.927-8.929,24.763,3.973,24.788c8.494,0.018,23.296-13.375,26.546-17.125c-1.927,10.393,3.618,17.107,12.453,17.107
		c2.303,0,4.834-0.321,7.523-1.375c22.185-8.695,38.852-26.001,58.104-43.081c6.196-5.495,5.521,12.147,5.823,19.227
		c-1.097,1.681-2.992,3.455-4.394,3.816c-1.707-4.804-5.078-7.095-9.101-7.095c-7.039,0-14.246,5.785-16.709,14.257
		c-2.283,7.337-0.373,14.212,6.39,14.25c8.438,0.05,20.259-13.283,24.456-16.829c0.782,8.302,2.806,16.57,11.572,16.829
		c14.305,0.424,34.371-21.632,43.053-33.559l-3.731-2.732c-6.134,7.518-13.021,16.375-21.232,21.975
		c-1.265,0.861-2.233,1.017-3.792,0.459c-6.217-2.218-4.93-14.192-5.311-22.434c1.01-1.667,3.242-5.444,4.35-4.5
		c1.44,1.228,1.652,3.763,2.479,5.647c1.831,4.168,7.041,4.486,10.43,2.746c5.627-2.891,11.34-8.156,13.078-15.338
		c3.297-13.593-5.636-16.241-14.746-11.553c-6.703,3.451-13.063,10.61-17.424,14.668c-0.566-3.432-1.765-9.752-3.662-12.499
		c-2.467-4.35-8.796-3.977-12.273-1.548c-20.82,14.545-38.605,37.07-61.481,48.596c-5.916,3.848-7.911,1.249-6.837-3.05
		c1.075-4.3,4.184-10.177,5.373-12.515c4.36,2.287,10.043,2.779,15.118,1.936c7.29-1.217,15.546-8.238,17.25-17.624
		c0.95-4.809,0.722-10.483-2.274-14.195c-9.153-11.337-28.551-1.819-40.385,10.53c-7.318,7.639-23.433,31.411-20.73,24.115
		c3.354-10.146,8.031-21.824,12.011-31.896c4.918,0.039,14.516-0.165,15.045-6.512h-12.979l7.983-22.098h-23.319
		c-2.466,7.78-5.498,15.333-9.1,22.658c-3.934,0.184-9.939,0.001-11.271,5.953h8.996c-4.742,13.046-15.084,25.304-24.755,34.458
		c-1.564,1.569-0.993-0.656-0.653-1.496l15.548-38.458l-22.752,0.004c-8.152,14.418-16.097,27.539-27.928,38.993
		c-1.401,1.356-1.543,0.453-1.154-0.68c4.5-13.075,10.245-25.319,14.937-38.317c-7.279,0-14.071,0-21.878,0
		C220.51,108.526,206.133,121.709,189.796,139.688L189.796,139.688z M458.191,55.367C416.082,21.916,353.745,5.576,289.74,4.438
		C224.628,3.28,169.365,16.081,122.684,61.583c-21.836,21.286-55.372,78.787-74.738,86.751L88.288,45.067
		c3.539-9.075,4.134-16.862-4.93-18.771c-14.851-3.125-41.999,4.908-62.135,12.936C14.057,42.09,5.171,46.36,4.106,54.911
		c8.868-4.298,31.142-14.045,48.949-16.547c1.146-0.161,2.274-0.319,3.38-0.39c3.86-0.247,4.037,2.726,3.224,4.804L15.103,156.536
		l-2.112,5.752c47.59,10.758,72.766-51.623,103.926-84.261c36.146-37.858,83.449-44.629,130.631-47.837
		c64.004-4.352,128.368-0.707,184.289,22.43c18.224,7.539,46.362,22.546,45.793,52.475c-1.11,58.399-110.147,72.748-154.538,74.462
		c-59.23,2.288-120.516-8.792-171.478-25.766c43.276,37.319,117.998,50.127,172.223,49.541
		c61.101-0.655,158.899-35.1,159.392-97.938C483.388,84.78,472.677,66.872,458.191,55.367L458.191,55.367z M103.712,159.778
		c-0.193,0.106-0.481,0.162-0.867,0.162h-1.938v-2.654h1.989c0.371,0.002,0.648,0.06,0.833,0.176
		c0.33,0.205,0.495,0.605,0.495,1.203C104.223,159.224,104.052,159.591,103.712,159.778L103.712,159.778z M105.756,164.641
		c-0.03-0.161-0.045-0.467-0.045-0.92v-0.66c0-0.696-0.08-1.21-0.238-1.545c-0.154-0.338-0.422-0.6-0.8-0.784
		c0.453-0.188,0.776-0.506,0.972-0.958c0.196-0.458,0.294-0.921,0.294-1.391c0-0.387-0.052-0.733-0.155-1.034
		c-0.104-0.308-0.245-0.583-0.422-0.833c-0.215-0.305-0.479-0.536-0.789-0.695c-0.307-0.152-0.748-0.238-1.321-0.251h-4.017v9.884
		h1.672v-3.875h1.767c0.503,0.002,0.846,0.104,1.028,0.311c0.185,0.216,0.28,0.635,0.288,1.267l0.011,0.915
		c0.004,0.291,0.028,0.579,0.073,0.854c0.021,0.134,0.059,0.313,0.11,0.53h1.883v-0.248
		C105.904,165.084,105.8,164.895,105.756,164.641L105.756,164.641z M102.14,168.502c-3.674,0-6.663-3.611-6.663-8.047
		c0-4.433,2.988-8.043,6.663-8.043c3.673,0,6.662,3.61,6.662,8.043C108.802,164.891,105.813,168.502,102.14,168.502L102.14,168.502z
		 M102.14,150.788c-4.415,0-8.006,4.342-8.006,9.668c0,5.332,3.591,9.668,8.006,9.668c4.414,0,8.006-4.336,8.006-9.668
		C110.146,155.129,106.554,150.788,102.14,150.788L102.14,150.788z M159.707,57.356c7.021,0,12.749,4.604,12.749,10.248
		c0,5.642-5.727,10.247-12.749,10.247s-12.749-4.605-12.749-10.247C146.958,61.959,152.685,57.356,159.707,57.356L159.707,57.356z"
		/>
</g>
</svg>
